<svg width="28" height="28" viewBox="0 0 28 28" fill="none" xmlns="http://www.w3.org/2000/svg">
<path d="M14.0011 2.33331C7.55531 2.33331 2.33448 7.55415 2.33448 14C2.33236 16.4492 3.10186 18.8368 4.53371 20.8238C5.96555 22.8108 7.98698 24.2963 10.311 25.0693C10.8943 25.1708 11.1136 24.8208 11.1136 24.514C11.1136 24.2375 11.0985 23.3193 11.0985 22.3416C8.16781 22.8818 7.40948 21.6276 7.17614 20.9708C7.04431 20.6348 6.47614 19.6 5.98031 19.3223C5.57198 19.1041 4.98864 18.564 5.96514 18.55C6.88448 18.5348 7.54014 19.3958 7.75948 19.7458C8.80948 21.5098 10.486 21.014 11.1568 20.7083C11.2595 19.95 11.5651 19.4401 11.9011 19.1485C9.30531 18.8568 6.59281 17.85 6.59281 13.3875C6.59281 12.1181 7.04431 11.0693 7.78864 10.2526C7.67198 9.96098 7.26364 8.76515 7.90531 7.16098C7.90531 7.16098 8.88181 6.85415 11.1136 8.35565C12.0635 8.09273 13.0447 7.96046 14.0303 7.96248C15.022 7.96248 16.0136 8.09315 16.947 8.35565C19.1788 6.83898 20.1553 7.16098 20.1553 7.16098C20.797 8.76515 20.3886 9.96098 20.272 10.2526C21.0151 11.0693 21.4678 12.1041 21.4678 13.3875C21.4678 17.8651 18.7413 18.8568 16.1455 19.1485C16.5678 19.5125 16.933 20.2125 16.933 21.3068C16.933 22.8666 16.9178 24.1208 16.9178 24.5151C16.9178 24.8208 17.1371 25.1848 17.7205 25.0681C20.0357 24.2854 22.0475 22.7968 23.4728 20.8114C24.8981 18.8261 25.6654 16.444 25.6666 14C25.6666 7.55415 20.4458 2.33331 14 2.33331" fill="white"/>
</svg>
